{"title":"Side Effects 2013 480p ESUB Dual Audio English Hindi AAC x264 GO","uid":10169151,"size":276012992,"categoryP":"video","categoryS":"movies","magnet":"?xt=urn:btih:8ff03466d590ec1a25eddb9c3011848ee2a94f6e&amp;dn=Side+Effects+2013+480p+ESUB+Dual+Audio+English+Hindi+AAC+x264+GO&amp;tr=udp%3A%2F%2Ftracker.openbittorrent.com%3A80&amp;tr=udp%3A%2F%2Fopen.demonii.com%3A1337&amp;tr=udp%3A%2F%2Ftracker.coppersurfer.tk%3A6969&amp;tr=udp%3A%2F%2Fexodus.desync.com%3A6969","seeders":1,"leechers":0,"uploader":"jatt13","files":1,"time":1400385106,"description":"Video\nID                             : 1\nFormat                         : AVC\nFormat/Info                    : Advanced Video Codec\nFormat profile                 : &lt;a class=&quot;__cf_email__&quot; href=&quot;/cdn-cgi/l/email-protection&quot; data-cfemail=&quot;de93bfb7b09e92eaf0ee&quot;&gt;[email&amp;#160;protected]&lt;/a&gt;&lt;script cf-hash='f9e31' type=&quot;text/javascript&quot;&gt;\n/* &lt;![CDATA[ */!function(){try{var t=&quot;currentScript&quot;in document?document.currentScript:function(){for(var t=document.getElementsByTagName(&quot;script&quot;),e=t.length;e--;)if(t[e].getAttribute(&quot;cf-hash&quot;))return t[e]}();if(t&amp;&amp;t.previousSibling){var e,r,n,i,c=t.previousSibling,a=c.getAttribute(&quot;data-cfemail&quot;);if(a){for(e=&quot;&quot;,r=parseInt(a.substr(0,2),16),n=2;a.length-n;n+=2)i=parseInt(a.substr(n,2),16)^r,e+=String.fromCharCode(i);e=document.createTextNode(e),c.parentNode.replaceChild(e,c)}}}catch(u){}}();/* ]]&gt; */&lt;/script&gt;\nFormat settings, CABAC         : Yes\nFormat settings, ReFrames      : 4 frames\nCodec ID                       : V_MPEG4/ISO/AVC\nDuration                       : 1h 46mn\nBit rate                       : 250 Kbps\nWidth                          : 720 pixels\nHeight                         : 384 pixels\nDisplay aspect ratio           : 1.85:1\nFrame rate mode                : Constant\nFrame rate                     : 23.976 fps\nColor space                    : YUV\nChroma subsampling             : 4:2:0\nBit depth                      : 8 bits\nScan type                      : Progressive\nBits/(Pixel*Frame)             : 0.038\nStream size                    : 185 MiB (70%)\nWriting library                : x264 core 130 r2273 b3065e6\nLanguage                       : English\nDefault                        : Yes\nForced                         : No\nColor primaries                : BT.709\nTransfer characteristics       : BT.709\nMatrix coefficients            : BT.709\n\nAudio #1\nID                             : 3\nFormat                         : MPEG Audio\nFormat version                 : Version 1\nFormat profile                 : Layer 3\nMode                           : Joint stereo\nMode extension                 : MS Stereo\nCodec ID                       : A_MPEG/L3\nCodec ID/Hint                  : MP3\nDuration                       : 1h 46mn\nBit rate mode                  : Constant\nBit rate                       : 48.0 Kbps\nChannel count                  : 2 channels\nSampling rate                  : 44.1 KHz\nCompression mode               : Lossy\nStream size                    : 36.5 MiB (14%)\nTitle                          : GOPI SAHI\nWriting library                : LAME3.98.2\nLanguage                       : Hindi\nDefault                        : Yes\nForced                         : No\n\nAudio #2\nID                             : 4\nFormat                         : MPEG Audio\nFormat version                 : Version 1\nFormat profile                 : Layer 3\nMode                           : Joint stereo\nMode extension                 : MS Stereo\nCodec ID                       : A_MPEG/L3\nCodec ID/Hint                  : MP3\nDuration                       : 1h 46mn\nBit rate mode                  : Constant\nBit rate                       : 48.0 Kbps\nChannel count                  : 2 channels\nSampling rate                  : 48.0 KHz\nCompression mode               : Lossy\nStream size                    : 36.5 MiB (14%)\nTitle                          : GOPI SAHI\nWriting library                : LAME3.96.1\nLanguage                       : English\nDefault                        : No\nForced                         : No\n[IMG]http://i.imgur.com/0PyON95.jpg[/IMG]\n[IMG]http://i.imgur.com/sB7NpbE.jpg[/IMG]\n[IMG]http://i.imgur.com/CuG8wTM.jpg[/IMG]\n[IMG]http://i.imgur.com/JPggaSy.jpg[/IMG]","torrent":{"xt":"urn:btih:8ff03466d590ec1a25eddb9c3011848ee2a94f6e","amp;dn":"Side+Effects+2013+480p+ESUB+Dual+Audio+English+Hindi+AAC+x264+GO","amp;tr":["udp%3A%2F%2Ftracker.openbittorrent.com%3A80","udp%3A%2F%2Fopen.demonii.com%3A1337","udp%3A%2F%2Ftracker.coppersurfer.tk%3A6969","udp%3A%2F%2Fexodus.desync.com%3A6969"],"infoHash":"8ff03466d590ec1a25eddb9c3011848ee2a94f6e","infoHashBuffer":{"type":"Buffer","data":[143,240,52,102,213,144,236,26,37,237,219,156,48,17,132,142,226,169,79,110]},"announce":[],"urlList":[]}}